<svg xmlns="http://www.w3.org/2000/svg" height="48px" viewBox="0 -960 960 960" width="48px" fill="#000000"><path d="M197-199q-54-58-85.5-130.5T80-481q0-80 30.5-152.5T197-763l43 42q-48 48-74 110t-26 130q0 67 27 128t73 111l-43 43Zm147.5-65.5Q330-279 330-300t14.5-35.5Q359-350 380-350t35.5 14.5Q430-321 430-300t-14.5 35.5Q401-250 380-250t-35.5-14.5ZM529-450v-79l-67 40-30-52 67-39-67-39 30-52 67 40v-79h60v79l67-40 30 52-67 39 67 39-30 52-67-40v79h-60Zm234 251-43-43q47-48 73.5-109.5T820-481q0-68-26.5-129.5T720-721l43-42q54 58 85.5 130.5T880-481q0 80-30.5 152.5T763-199Z"/></svg>